<svg xmlns="http://www.w3.org/2000/svg" viewBox="0 0 64 64" role="img" aria-labelledby="title">
  <title id="title">Smart Schools SMS</title>
  <defs><linearGradient id="g" x1="0" x2="1" y1="0" y2="1"><stop stop-color="#2563eb"/><stop offset="1" stop-color="#0f766e"/></linearGradient></defs>
  <path fill="url(#g)" d="M32 3 5 13l27 10 22-8v18h5V13L32 3Z"/>
  <path fill="#0b1f3a" d="M13 24v21c7 1 13 5 19 11 6-6 12-10 19-11V24l-19 7-19-7Z"/>
  <path fill="#fff" d="M18 31v10c5 1 9 3 14 7V36c-5-3-9-5-14-5Zm28 0c-5 0-9 2-14 5v12c5-4 9-6 14-7V31Z"/>
  <circle cx="56.5" cy="36" r="3.5" fill="#f59e0b"/>
</svg>
